<?xml version="1.0" encoding="utf-8"?>
<!-- Generator: Adobe Illustrator 16.0.0, SVG Export Plug-In . SVG Version: 6.00 Build 0)  -->
<!DOCTYPE svg PUBLIC "-//W3C//DTD SVG 1.1//EN" "http://www.w3.org/Graphics/SVG/1.1/DTD/svg11.dtd">
<svg version="1.1" id="Layer_1" xmlns="http://www.w3.org/2000/svg" xmlns:xlink="http://www.w3.org/1999/xlink" x="0px" y="0px"
	 width="128px" height="128px" viewBox="0 0 128 128" enable-background="new 0 0 128 128" xml:space="preserve">
<g>
	<g>
		<path fill="#282D33" d="M99.177,119.841l-2.215-3.331c1.063-0.708,2.124-1.463,3.153-2.247l2.424,3.184
			C101.442,118.28,100.312,119.087,99.177,119.841z M26.009,117.836c-1.1-0.819-2.186-1.685-3.229-2.571l2.592-3.048
			c0.979,0.831,1.997,1.645,3.028,2.414L26.009,117.836z M105.741,114.842l-2.624-3.022c0.971-0.842,1.927-1.727,2.841-2.629
			l2.811,2.846C107.794,112.999,106.775,113.943,105.741,114.842z M19.723,112.49c-0.989-0.958-1.955-1.954-2.873-2.962l2.96-2.692
			c0.86,0.945,1.768,1.881,2.696,2.781L19.723,112.49z M111.612,109.043l-2.985-2.662c0.855-0.959,1.691-1.958,2.482-2.971
			l3.151,2.466C113.415,106.955,112.524,108.021,111.612,109.043z M14.171,106.388c-0.855-1.069-1.688-2.182-2.475-3.305
			l3.278-2.293c0.737,1.053,1.518,2.096,2.32,3.099L14.171,106.388z M116.699,102.549l-3.3-2.262
			c0.729-1.063,1.431-2.16,2.086-3.261l3.438,2.045C118.225,100.247,117.477,101.416,116.699,102.549z M9.438,99.628
			c-0.714-1.172-1.398-2.38-2.034-3.591l3.543-1.86c0.597,1.138,1.238,2.271,1.907,3.37L9.438,99.628z M120.921,95.461l-3.562-1.825
			c0.584-1.139,1.141-2.315,1.653-3.499l3.67,1.592C122.136,92.989,121.543,94.245,120.921,95.461z M5.604,92.322
			c-0.558-1.25-1.082-2.536-1.56-3.821l3.751-1.393c0.447,1.206,0.939,2.412,1.463,3.585L5.604,92.322z M124.204,87.892
			l-3.765-1.354c0.434-1.208,0.835-2.448,1.193-3.685l3.843,1.111C125.095,85.282,124.667,86.604,124.204,87.892z M2.734,84.587
			c-0.394-1.312-0.75-2.654-1.06-3.991l3.898-0.901c0.29,1.254,0.624,2.514,0.993,3.742L2.734,84.587z M126.495,79.966l-3.907-0.863
			c0.275-1.247,0.517-2.527,0.715-3.808l3.954,0.616C127.045,77.272,126.788,78.637,126.495,79.966z M0.873,76.548
			c-0.224-1.352-0.405-2.728-0.543-4.091l3.98-0.4c0.129,1.28,0.301,2.572,0.51,3.841L0.873,76.548z M127.758,71.813l-3.984-0.359
			c0.116-1.283,0.192-2.584,0.229-3.868L128,67.697C127.962,69.063,127.881,70.448,127.758,71.813z M0.047,68.341
			C0.016,67.518,0,66.69,0,65.857c0-0.549,0.007-1.096,0.021-1.641l4,0.1c-0.013,0.512-0.02,1.026-0.02,1.542
			c0,0.782,0.015,1.561,0.044,2.335L0.047,68.341z M123.989,63.71c-0.044-1.289-0.13-2.588-0.254-3.863l3.98-0.39
			c0.133,1.359,0.225,2.744,0.272,4.116L123.989,63.71z M4.236,60.448l-3.985-0.35c0.12-1.37,0.284-2.748,0.488-4.095l3.956,0.6
			C4.504,57.868,4.35,59.162,4.236,60.448z M123.238,56.005c-0.206-1.272-0.455-2.55-0.74-3.799l3.901-0.89
			c0.304,1.332,0.568,2.694,0.788,4.05L123.238,56.005z M5.397,52.796l-3.909-0.85c0.29-1.336,0.628-2.683,1.005-4.002l3.848,1.098
			C5.987,50.279,5.67,51.542,5.397,52.796z M121.518,48.46c-0.364-1.229-0.773-2.466-1.217-3.674l3.755-1.379
			c0.474,1.289,0.91,2.606,1.299,3.918L121.518,48.46z M7.521,45.355l-3.77-1.341c0.458-1.288,0.965-2.581,1.507-3.842l3.677,1.579
			C8.426,42.934,7.95,44.147,7.521,45.355z M118.85,41.19c-0.521-1.177-1.086-2.354-1.68-3.496l3.55-1.845
			c0.633,1.217,1.234,2.47,1.788,3.724L118.85,41.19z M10.572,38.25l-3.567-1.81c0.617-1.218,1.284-2.435,1.981-3.615l3.445,2.035
			C11.777,35.967,11.152,37.108,10.572,38.25z M115.272,34.318c-0.665-1.1-1.374-2.194-2.109-3.251l3.286-2.283
			c0.782,1.126,1.538,2.292,2.248,3.464L115.272,34.318z M14.503,31.592l-3.308-2.25c0.768-1.13,1.584-2.252,2.426-3.334
			l3.158,2.455C15.99,29.479,15.225,30.532,14.503,31.592z M110.852,27.959c-0.801-1.009-1.643-2.002-2.504-2.955l2.968-2.683
			c0.918,1.015,1.815,2.074,2.67,3.149L110.852,27.959z M19.252,25.483l-2.997-2.65c0.903-1.023,1.856-2.033,2.831-3.002
			l2.821,2.837C20.993,23.577,20.1,24.524,19.252,25.483z M105.66,22.214c-0.922-0.898-1.884-1.776-2.858-2.611l2.603-3.039
			c1.039,0.89,2.063,1.826,3.047,2.784L105.66,22.214z M24.738,20.026l-2.636-3.01c1.032-0.903,2.106-1.784,3.193-2.618l2.436,3.173
			C26.712,18.354,25.705,19.179,24.738,20.026z M99.783,17.181c-1.027-0.771-2.093-1.518-3.167-2.222l2.191-3.347
			c1.146,0.75,2.283,1.548,3.378,2.371L99.783,17.181z M30.877,15.314L28.65,11.99c1.142-0.765,2.32-1.501,3.504-2.188l2.008,3.461
			C33.053,13.907,31.947,14.597,30.877,15.314z M93.314,12.946c-1.116-0.632-2.269-1.236-3.424-1.795l1.743-3.602
			c1.231,0.596,2.46,1.241,3.652,1.915L93.314,12.946z M37.572,11.429l-1.779-3.583c1.229-0.61,2.493-1.188,3.761-1.717l1.542,3.692
			C39.909,10.316,38.724,10.857,37.572,11.429z M86.359,9.584c-1.188-0.481-2.407-0.93-3.623-1.334l1.258-3.797
			c1.299,0.431,2.602,0.91,3.869,1.423L86.359,9.584z M44.717,8.445L43.419,4.66c1.299-0.445,2.627-0.852,3.949-1.21l1.047,3.861
			C47.177,7.646,45.933,8.028,44.717,8.445z M79.026,7.155c-1.242-0.323-2.511-0.609-3.774-0.85l0.753-3.93
			c1.347,0.257,2.702,0.563,4.027,0.908L79.026,7.155z M52.179,6.422L51.388,2.5c1.345-0.271,2.714-0.501,4.07-0.685l0.535,3.964
			C54.723,5.952,53.439,6.167,52.179,6.422z M71.433,5.702c-1.273-0.159-2.569-0.277-3.853-0.353l0.236-3.994
			c1.368,0.081,2.751,0.208,4.11,0.376L71.433,5.702z M59.842,5.388l-0.276-3.991c1.364-0.094,2.752-0.146,4.123-0.153l0.021,4
			C62.422,5.251,61.121,5.299,59.842,5.388z"/>
	</g>
	<g>
		<path fill="#282D33" d="M80.729,126.756c-5.869,0-8.338-6.671-12.82-18.781c-1.648-4.446-3.203-5.633-3.861-5.633
			c-0.637,0-2.277,1.177-3.927,5.633c-4.482,12.11-6.952,18.781-12.823,18.781c-5.689,0-11.449-8.19-11.449-23.848
			c0-7.939-1.563-11.568-3.372-15.771c-1.407-3.267-3.001-6.968-4.001-13.025c-2.021-12.237,1.987-23.67,9.746-27.801
			c4.567-2.684,7.444-3.979,11.24-3.979c2.786,0,5.92,0.693,10.729,1.974c1.342,0.352,2.597,0.595,3.823,0.741
			c1.221-0.146,2.476-0.389,3.826-0.743c4.802-1.279,7.937-1.973,10.724-1.973c3.799,0,6.674,1.296,11.312,4.02
			c7.69,4.089,11.7,15.522,9.678,27.76c-1.015,6.143-2.617,9.858-4.031,13.138c-1.798,4.167-3.35,7.767-3.35,15.658
			C92.172,118.565,86.415,126.756,80.729,126.756z M64.047,98.341c3.023,0,5.585,2.774,7.613,8.244
			c4.254,11.49,6.264,16.17,9.068,16.17c2.514,0,7.442-5.993,7.442-19.847c0-8.718,1.785-12.859,3.677-17.242
			c1.388-3.218,2.822-6.546,3.758-12.206c1.719-10.401-1.512-20.334-7.683-23.617c-4.239-2.487-6.449-3.51-9.359-3.51
			c-2.335,0-5.325,0.674-9.702,1.839c-1.63,0.428-3.142,0.714-4.628,0.877l-0.219,0.024l-0.219-0.024
			c-1.494-0.164-3.008-0.451-4.628-0.876c-4.383-1.167-7.373-1.841-9.707-1.841c-2.907,0-5.119,1.022-9.287,3.469
			c-6.24,3.324-9.47,13.257-7.752,23.658c0.921,5.576,2.348,8.891,3.728,12.096c1.902,4.415,3.699,8.587,3.699,17.353
			c0,13.854,4.933,19.847,7.448,19.847c2.808,0,4.818-4.68,9.071-16.169C58.892,99.772,61.937,98.341,64.047,98.341z"/>
	</g>
</g>
</svg>
